<?xml version="1.0" encoding="UTF-8" standalone="no"?>
<svg
   xmlns:dc="http://purl.org/dc/elements/1.1/"
   xmlns:cc="http://creativecommons.org/ns#"
   xmlns:rdf="http://www.w3.org/1999/02/22-rdf-syntax-ns#"
   xmlns:svg="http://www.w3.org/2000/svg"
   xmlns="http://www.w3.org/2000/svg"
   xmlns:sodipodi="http://sodipodi.sourceforge.net/DTD/sodipodi-0.dtd"
   xmlns:inkscape="http://www.inkscape.org/namespaces/inkscape"
   viewBox="3 3 16 16"
   version="1.1"
   id="svg887"
   sodipodi:docname="Reset.svg"
   inkscape:version="0.92.2 (5c3e80d, 2017-08-06)">
  <metadata
     id="metadata893">
    <rdf:RDF>
      <cc:Work
         rdf:about="">
        <dc:format>image/svg+xml</dc:format>
        <dc:type
           rdf:resource="http://purl.org/dc/dcmitype/StillImage" />
      </cc:Work>
    </rdf:RDF>
  </metadata>
  <defs
     id="defs891" />
  <sodipodi:namedview
     pagecolor="#ffffff"
     bordercolor="#666666"
     borderopacity="1"
     objecttolerance="10"
     gridtolerance="10"
     guidetolerance="10"
     inkscape:pageopacity="0"
     inkscape:pageshadow="2"
     inkscape:window-width="1920"
     inkscape:window-height="1121"
     id="namedview889"
     showgrid="false"
     inkscape:zoom="45.254834"
     inkscape:cx="4.5780589"
     inkscape:cy="6.3005609"
     inkscape:window-x="-9"
     inkscape:window-y="-9"
     inkscape:window-maximized="1"
     inkscape:current-layer="svg887" />
  <path
     style="fill:#4d4d4d;fill-opacity:0.94117647"
     d="M 8 0 A 8 8 0 0 0 0 8 A 8 8 0 0 0 8 16 A 8 8 0 0 0 16 8 A 8 8 0 0 0 8 0 z M 8.2050781 3.7988281 C 8.8144563 3.7988281 9.3964529 3.9179071 9.9511719 4.15625 C 10.505963 4.3943771 10.984326 4.714867 11.386719 5.1171875 C 11.789039 5.519508 12.109457 5.9980154 12.347656 6.5527344 C 12.585927 7.1074533 12.705078 7.689378 12.705078 8.2988281 C 12.705078 8.9081344 12.585927 9.4902029 12.347656 10.044922 C 12.109529 10.599641 11.789039 11.078004 11.386719 11.480469 C 10.984254 11.882717 10.505891 12.203135 9.9511719 12.441406 C 9.3964529 12.679677 8.8144563 12.798828 8.2050781 12.798828 C 7.5332015 12.798828 6.894557 12.656196 6.2890625 12.373047 C 5.683568 12.089898 5.1680258 11.691448 4.7421875 11.175781 C 4.7148579 11.136729 4.7011832 11.091874 4.703125 11.042969 C 4.7050668 10.994135 4.722693 10.955185 4.7539062 10.923828 L 5.5566406 10.115234 C 5.5956932 10.080065 5.6445102 10.0625 5.703125 10.0625 C 5.7659831 10.070339 5.810561 10.09376 5.8378906 10.132812 C 6.1230534 10.503992 6.4726753 10.791039 6.8867188 10.994141 C 7.3008341 11.197243 7.7401872 11.298828 8.2050781 11.298828 C 8.6110665 11.298828 8.9980221 11.218771 9.3671875 11.060547 C 9.7362809 10.902395 10.056616 10.689478 10.326172 10.419922 C 10.595728 10.150366 10.808573 9.8301029 10.966797 9.4609375 C 11.124949 9.0919879 11.205078 8.7051761 11.205078 8.2988281 C 11.205078 7.8926959 11.124949 7.5058841 10.966797 7.1367188 C 10.808573 6.7675534 10.595728 6.4472186 10.326172 6.1777344 C 10.056616 5.9081782 9.7363529 5.6953334 9.3671875 5.5371094 C 8.9982379 5.3789573 8.6113542 5.2988281 8.2050781 5.2988281 C 7.822248 5.2988281 7.4551325 5.3691507 7.1035156 5.5078125 C 6.751683 5.6465462 6.4395274 5.8437293 6.1660156 6.1015625 L 6.96875 6.9101562 C 7.0898633 7.0273859 7.1171634 7.1621266 7.0507812 7.3144531 C 6.9843991 7.4707353 6.8691996 7.5488281 6.7050781 7.5488281 L 4.0800781 7.5488281 C 3.9785271 7.5488281 3.8906996 7.5117214 3.8164062 7.4375 C 3.7421848 7.3632786 3.7050781 7.2753792 3.7050781 7.1738281 L 3.7050781 4.5488281 C 3.7050781 4.3847786 3.783171 4.2695791 3.9394531 4.203125 C 4.0918516 4.1367428 4.2265204 4.164043 4.34375 4.2851562 L 5.1054688 5.0410156 C 5.5233239 4.6464625 6.0000108 4.3414792 6.5371094 4.125 C 7.0743518 3.9081612 7.6308688 3.7988281 8.2050781 3.7988281 z "
     transform="translate(3,3)"
     id="circle883" />
</svg>
